Coordinates
version=1
nRows=19
nColumns=36
inDegrees=yes

Units are S.I. units (second, meters, Newtons, ...)
If the header above contains a line with 'inDegrees', this indicates whether rotational values are in degrees (yes) or radians (no).

endheader
time	pelvis_tilt	pelvis_list	pelvis_rotation	pelvis_tx	pelvis_ty	pelvis_tz	hip_flexion_r	hip_adduction_r	hip_rotation_r	knee_angle_r	knee_angle_r_beta	ankle_angle_r	subtalar_angle_r	mtp_angle_r	hip_flexion_l	hip_adduction_l	hip_rotation_l	knee_angle_l	knee_angle_l_beta	ankle_angle_l	subtalar_angle_l	mtp_angle_l	lumbar_extension	lumbar_bending	lumbar_rotation	arm_flex_r	arm_add_r	arm_rot_r	elbow_flex_r	pro_sup_r	arm_flex_l	arm_add_l	arm_rot_l	elbow_flex_l	pro_sup_l
      2.25000000	      1.39947588	     -1.65534659	     -0.99212295	      0.68323394	      0.93022077	      0.01235362	      7.36279507	     -3.25307563	      1.92793032	     12.08026498	      0.21084040	      5.64138610	     -0.86664710	     -7.49999929	      1.18149382	     -5.99635370	      1.41351046	     10.66748014	      0.18618265	     10.46302204	     -2.15519459	     -7.49999929	     -5.79577010	      0.09886291	     -1.23931486	     48.50004859	      4.31528441	     65.82331353	    127.38356164	     89.93330001	     54.12822070	      2.90557674	     61.90937655	    117.55210003	     94.43904850
      2.26666670	      1.39981685	     -1.69792904	     -1.20199445	      0.67322253	      0.92673594	      0.01735892	      7.48768550	     -3.03301529	      2.17839978	     12.35914391	      0.21570775	      5.70939019	     -0.88422024	     -7.49999930	      1.02105195	     -6.18473782	      1.30920865	     10.52874706	      0.18376130	     10.54459531	     -2.19954148	     -7.49999930	     -5.86256805	      0.19846904	     -0.86276329	     48.97760912	      3.55538164	     65.13539464	    127.24494907	     89.79230497	     54.21700168	      2.77406664	     61.23726655	    117.03898783	     94.38646134
      2.28333330	      1.46706486	     -1.76854813	     -1.29840753	      0.68309340	      0.93310810	      0.02342970	      7.34772434	     -2.79078016	      2.32458967	     12.51353188	      0.21840233	      5.88480304	     -0.87184348	     -7.49999931	      0.64834751	     -6.44459330	      1.10129310	     10.23580669	      0.17864853	     10.36489254	     -2.19302766	     -7.49999931	     -5.89548514	      0.24453473	     -0.90604500	     48.50096089	      3.03807809	     65.23746851	    127.34387860	     89.72607747	     53.86535211	      2.38933426	     61.38764858	    116.95910177	     94.37232790
      2.30000000	      1.41262053	     -1.81912992	     -1.53540876	      0.67360033	      0.92888846	      0.02826695	      7.57363349	     -2.52974546	      2.55895178	     12.82745389	      0.22388130	      5.91194536	     -0.84469895	     -7.49999932	      0.66507355	     -6.69925759	      0.87875440	     10.20863387	      0.17817427	     10.22987963	     -2.22759240	     -7.49999932	     -6.09006034	      0.24159613	     -1.11514117	     48.97748126	      2.97094837	     65.19374265	    127.34383695	     89.61513387	     54.79998415	      2.43943800	     61.07464867	    116.71475724	     94.31111957
      2.31666670	      1.46711795	     -1.91590794	     -1.71009122	      0.67280757	      0.93114258	      0.03411898	      7.66209077	     -2.21392297	      2.84674858	     13.05861404	      0.22791581	      5.90077528	     -0.94523931	     -7.49999933	      0.62090475	     -7.03611252	      0.65251829	     10.20417360	      0.17809643	     10.08525648	     -2.32439371	     -7.49999933	     -6.57493332	      0.32099508	     -1.08484778	     49.58014676	      3.03653701	     65.75885933	    127.43519771	     89.48780907	     55.74295474	      2.65003785	     62.32942080	    116.91429481	     94.38101182
      2.33333330	      1.23174551	     -2.02157352	     -1.76807069	      0.66880776	      0.92522620	      0.03644025	      8.15915029	     -1.90106695	      2.93812507	     13.35110894	      0.23302081	      5.85408338	     -0.93879740	     -7.49999934	      1.11015059	     -7.41076343	      0.44407946	     10.47004625	      0.18273678	      9.91571105	     -2.41330351	     -7.49999934	     -6.65936250	      0.52045592	     -1.35722192	     50.54715825	      3.22517975	     65.39269246	    127.25584197	     89.21373892	     56.84433945	      3.15153121	     62.19732710	    116.70462124	     94.12918981
      2.35000000	      1.42405275	     -2.13901432	     -1.78380769	      0.67831449	      0.92927371	      0.04288423	      8.01119459	     -1.58004818	      3.07891375	     13.48860605	      0.23542059	      5.88842476	     -0.92780377	     -7.49999934	      1.02624722	     -7.78010333	      0.25481492	     10.60316179	      0.18506008	      9.73875134	     -2.54457852	     -7.49999934	     -6.91002610	      0.73594180	     -1.59544264	     50.14084136	      3.01325028	     65.55831855	    127.51191096	     89.18643196	     56.46380163	      2.89074727	     62.35007923	    116.29634767	     94.13226946
      2.36666670	      1.53792853	     -2.30622501	     -1.77637013	      0.67934099	      0.92703579	      0.04781210	      7.84562716	     -1.17639595	      3.17891684	     13.41002492	      0.23404909	      5.89726358	     -0.89524102	     -7.49999935	      0.89626140	     -8.20613043	      0.16580278	     10.56243916	      0.18434934	      9.47368958	     -2.82794807	     -7.49999935	     -6.85191066	      0.92970831	     -1.51732708	     49.48648590	      2.41399771	     65.09155586	    128.19820305	     89.06372348	     55.97735796	      3.05002862	     62.06065638	    115.77121383	     94.11385277
      2.38333330	      1.64562863	     -2.40646774	     -1.76742564	      0.68352754	      0.92525107	      0.05131238	      7.72920990	     -0.85329337	      3.29694536	     13.57728986	      0.23696841	      6.07653441	     -0.87550908	     -7.49999935	      0.72241471	     -8.56766331	     -0.05599716	     10.55562169	      0.18423035	      9.32574128	     -2.92329090	     -7.49999935	     -6.71084096	      1.16120198	     -2.05701609	     49.23272485	      2.03816145	     65.22681562	    128.63224734	     89.06375372	     55.92442140	      3.22544540	     61.99175909	    115.74879028	     94.10781762
      2.40000000	      1.80352611	     -2.53634319	     -1.79131742	      0.68884739	      0.92457015	      0.05452255	      7.40897694	     -0.53148036	      3.25196884	     13.60636461	      0.23747586	      6.32767418	     -0.72110662	     -7.49999936	      0.34134325	     -8.92440058	     -0.18103114	     10.42355034	      0.18192527	      9.03653579	     -3.07191999	     -7.49999936	     -6.45864626	      1.38450036	     -2.07059540	     49.11271993	      1.25178864	     65.70092722	    130.86230160	     89.08050581	     55.27002852	      4.11392501	     61.48418422	    115.79965559	     94.08291198
      2.41666670	      1.93638092	     -2.66438116	     -1.86048800	      0.69355318	      0.91907423	      0.06334213	      7.10021670	     -0.16433228	      3.25155141	     13.67624138	      0.23869544	      6.77563629	     -0.60687207	     -7.49999948	     -0.01295725	     -9.32055243	     -0.26482411	     10.36381197	      0.18088264	      8.81286879	     -3.36547571	     -7.49999948	     -6.05930294	      1.49192258	     -2.03344971	     49.32366492	      1.28705887	     65.41553789	    131.47100654	     88.86529133	     55.49057862	      4.75125695	     61.75265676	    115.84012193	     93.73136451
      2.43333330	      1.89881390	     -2.82880013	     -1.93721511	      0.67867946	      0.91514654	      0.07115722	      7.22005950	      0.29300612	      3.34513411	     13.93256160	      0.24316907	      7.01207931	     -0.69314581	     -7.49999949	      0.15447050	     -9.83066815	     -0.25510436	     10.63726578	      0.18565531	      8.88451012	     -3.59407876	     -7.49999949	     -6.05297296	      1.74069372	     -2.39692981	     50.73511257	      1.87975730	     65.55749775	    130.88524737	     88.01046268	     56.55534010	      4.89735421	     61.83777627	    115.74974793	     92.74570804
      2.45000000	      1.73924353	     -3.00581423	     -2.17787419	      0.67388773	      0.91185562	      0.07967872	      7.75333365	      0.84894061	      3.71137911	     14.57095187	      0.25431109	      7.23752173	     -0.99293165	     -7.49999950	      0.64864718	    -10.42281787	     -0.44706061	     11.24148937	      0.19620100	      9.16699706	     -3.86266588	     -7.49999950	     -6.09143921	      1.89602902	     -2.32935080	     51.84443969	      2.18776390	     64.81921001	    130.24393895	     87.92675718	     57.48537212	      4.55258944	     61.32495436	    115.26375873	     92.81119740
      2.46666670	      1.68904392	     -3.16731577	     -2.29165804	      0.67970631	      0.91773204	      0.08245399	      8.02567301	      1.32769221	      3.88406243	     15.01982087	      0.26214533	      7.48204383	     -1.11401577	     -7.49999950	      0.92399681	    -10.98416587	     -0.59928521	     11.63299178	      0.20303401	      9.19414883	     -4.08892466	     -7.49999950	     -6.26120172	      2.15712785	     -2.43303108	     51.77327663	      1.80490459	     64.73987451	    129.82011977	     87.83449523	     57.33464896	      4.26474908	     61.12675946	    114.93878574	     92.77703993
      2.48333330	      1.43971454	     -3.35419302	     -2.41103321	      0.68534708	      0.91827538	      0.09097440	      8.53347023	      1.88794257	      4.06670588	     15.58056596	      0.27193218	      7.74696781	     -1.28732076	     -7.49999951	      1.51784106	    -11.59838375	     -0.66422252	     12.24772589	      0.21376314	      9.02039166	     -4.54367079	     -7.49999951	     -5.94856554	      2.44295258	     -2.34434708	     51.12606776	      1.35321211	     64.84795063	    129.69554465	     87.76582155	     56.38968165	      4.17592719	     60.77328790	    115.04323605	     92.89954409
      2.50000000	      1.34794624	     -3.58561199	     -2.23533519	      0.68059724	      0.92495531	      0.09187296	      8.98468609	      2.45717744	      4.03778075	     16.28868736	      0.28429123	      8.11209995	     -1.36555688	     -7.49999965	      2.18075505	    -12.26157238	     -0.59008045	     13.03603793	      0.22752178	      8.84196372	     -5.05448790	     -7.49999965	     -6.31644627	      2.86549379	     -2.22648672	     51.16120654	      0.54720008	     65.30749921	    128.79400753	     88.26016308	     56.00182695	      4.25139077	     60.93713025	    114.86027799	     94.66990952
      2.51666670	      1.15362587	     -3.71408929	     -1.99373885	      0.68040359	      0.92192459	      0.09161268	      9.53104659	      2.82359315	      3.71505521	     16.92304205	      0.29536280	      8.48419176	     -1.03809920	     -7.49999968	      3.04555339	    -12.73914736	     -0.41153314	     13.85567056	      0.24182707	      8.73159205	     -5.54480750	     -7.49999968	     -6.35590545	      3.23045789	     -2.74114666	     51.69705339	      0.05961365	     65.27179787	    128.92702610	     86.13695087	     56.13714753	      4.15376339	     60.87531092	    114.67717584	     91.90701499
      2.53333330	      1.37537544	     -3.77855473	     -1.90524924	      0.68610989	      0.92555341	      0.09472690	      9.50037672	      3.17021332	      3.86520266	     17.39060957	      0.30352340	      8.83229617	     -1.23149524	     -7.49999969	      3.21365937	    -13.12899568	     -0.75400771	     14.40257139	      0.25137229	      8.61440664	     -5.66464388	     -7.49999969	     -6.48454943	      3.49819915	     -2.92638282	     51.54000311	     -0.03126098	     65.65950995	    129.47953082	     86.24621692	     55.68110137	      4.22475424	     61.02845719	    114.45714281	     92.01443597
      2.55000000	      1.25691766	     -3.86150124	     -1.68241905	      0.69130117	      0.92466780	      0.10387690	      9.79384457	      3.54478445	      3.76769664	     17.84999327	      0.31154115	      9.08519829	     -1.19429187	     -7.49999969	      3.90152923	    -13.56266713	     -0.92255916	     15.07207061	      0.26305726	      8.34463929	     -5.77210615	     -7.49999969	     -6.10862510	      3.67910601	     -3.08499383	     50.92323468	     -0.19400527	     66.71467089	    130.44554376	     86.57801719	     54.92768935	      4.35876516	     61.28843619	    114.67368827	     92.33211658
